<svg xmlns="http://www.w3.org/2000/svg" xmlns:xlink="http://www.w3.org/1999/xlink"><symbol viewBox="0 0 32 25" id="apokrif" xmlns="http://www.w3.org/2000/svg"><path d="M31.71 0l.097.192c-1.927 1.021-3.502 2.522-4.723 4.501-1.22 1.916-1.831 3.928-1.831 6.035 0 .32.032.575.096.766l.386.383c.193.064.45.128.771.192 1.67.255 2.988.99 3.952 2.203C31.486 15.422 32 16.826 32 18.487c0 1.851-.643 3.416-1.928 4.693-1.285 1.213-2.891 1.82-4.819 1.82-2.185 0-3.952-.734-5.301-2.203-1.35-1.469-2.024-3.416-2.024-5.843 0-3.831 1.285-7.375 3.855-10.632C24.353 3.065 27.663.958 31.711 0zM13.784 0l.097.192c-1.928 1.021-3.503 2.522-4.723 4.501-1.221 1.916-1.832 3.928-1.832 6.035 0 .32.032.575.097.766l.385.383c.193.064.45.128.771.192 1.671.255 2.988.99 3.952 2.203 1.028 1.15 1.542 2.554 1.542 4.215 0 1.851-.642 3.416-1.927 4.693C10.859 24.393 9.253 25 7.325 25c-2.184 0-3.952-.734-5.3-2.203C.674 21.328 0 19.38 0 16.954c0-3.831 1.285-7.375 3.855-10.632C6.425 3.065 9.735.958 13.783 0z"/></symbol><symbol viewBox="0 0 32 32" id="arrow-up" xmlns="http://www.w3.org/2000/svg"><path d="M.256 23.481a1.063 1.063 0 001.813.75l14.119-14.119 13.913 13.912c.413.413 1.087.413 1.5 0s.413-1.087 0-1.5L16.938 7.855a1.065 1.065 0 00-1.5 0L.569 22.724a1.051 1.051 0 00-.313.756z"/></symbol><symbol viewBox="0 0 24 24" id="crest" xmlns="http://www.w3.org/2000/svg"><path d="M18 6L6 18M6 6l12 12"/></symbol><symbol viewBox="0 0 230 230" id="dots" xmlns="http://www.w3.org/2000/svg"><circle cx="5" cy="125" r="5"/><circle cx="25" cy="125" r="5"/><circle cx="45" cy="125" r="5"/><circle cx="65" cy="125" r="5"/><circle cx="85" cy="125" r="5"/><circle cx="105" cy="125" r="5"/><circle cx="5" cy="145" r="5"/><circle cx="25" cy="145" r="5"/><circle cx="45" cy="145" r="5"/><circle cx="65" cy="145" r="5"/><circle cx="85" cy="145" r="5"/><circle cx="105" cy="145" r="5"/><circle cx="5" cy="165" r="5"/><circle cx="25" cy="165" r="5"/><circle cx="45" cy="165" r="5"/><circle cx="65" cy="165" r="5"/><circle cx="85" cy="165" r="5"/><circle cx="105" cy="165" r="5"/><circle cx="5" cy="185" r="5"/><circle cx="25" cy="185" r="5"/><circle cx="45" cy="185" r="5"/><circle cx="65" cy="185" r="5"/><circle cx="85" cy="185" r="5"/><circle cx="105" cy="185" r="5"/><circle cx="5" cy="205" r="5"/><circle cx="25" cy="205" r="5"/><circle cx="45" cy="205" r="5"/><circle cx="65" cy="205" r="5"/><circle cx="85" cy="205" r="5"/><circle cx="105" cy="205" r="5"/><circle cx="5" cy="225" r="5"/><circle cx="25" cy="225" r="5"/><circle cx="45" cy="225" r="5"/><circle cx="65" cy="225" r="5"/><circle cx="85" cy="225" r="5"/><circle cx="105" cy="225" r="5"/><circle cx="5" cy="5" r="5"/><circle cx="25" cy="5" r="5"/><circle cx="45" cy="5" r="5"/><circle cx="65" cy="5" r="5"/><circle cx="85" cy="5" r="5"/><circle cx="105" cy="5" r="5"/><circle cx="5" cy="25" r="5"/><circle cx="25" cy="25" r="5"/><circle cx="45" cy="25" r="5"/><circle cx="65" cy="25" r="5"/><circle cx="85" cy="25" r="5"/><circle cx="105" cy="25" r="5"/><circle cx="5" cy="45" r="5"/><circle cx="25" cy="45" r="5"/><circle cx="45" cy="45" r="5"/><circle cx="65" cy="45" r="5"/><circle cx="85" cy="45" r="5"/><circle cx="105" cy="45" r="5"/><circle cx="5" cy="65" r="5"/><circle cx="25" cy="65" r="5"/><circle cx="45" cy="65" r="5"/><circle cx="65" cy="65" r="5"/><circle cx="85" cy="65" r="5"/><circle cx="105" cy="65" r="5"/><circle cx="5" cy="85" r="5"/><circle cx="25" cy="85" r="5"/><circle cx="45" cy="85" r="5"/><circle cx="65" cy="85" r="5"/><circle cx="85" cy="85" r="5"/><circle cx="105" cy="85" r="5"/><circle cx="5" cy="105" r="5"/><circle cx="25" cy="105" r="5"/><circle cx="45" cy="105" r="5"/><circle cx="65" cy="105" r="5"/><circle cx="85" cy="105" r="5"/><circle cx="105" cy="105" r="5"/><circle cx="125" cy="125" r="5"/><circle cx="145" cy="125" r="5"/><circle cx="165" cy="125" r="5"/><circle cx="185" cy="125" r="5"/><circle cx="205" cy="125" r="5"/><circle cx="225" cy="125" r="5"/><circle cx="125" cy="145" r="5"/><circle cx="145" cy="145" r="5"/><circle cx="165" cy="145" r="5"/><circle cx="185" cy="145" r="5"/><circle cx="205" cy="145" r="5"/><circle cx="225" cy="145" r="5"/><circle cx="125" cy="165" r="5"/><circle cx="145" cy="165" r="5"/><circle cx="165" cy="165" r="5"/><circle cx="185" cy="165" r="5"/><circle cx="205" cy="165" r="5"/><circle cx="225" cy="165" r="5"/><circle cx="125" cy="185" r="5"/><circle cx="145" cy="185" r="5"/><circle cx="165" cy="185" r="5"/><circle cx="185" cy="185" r="5"/><circle cx="205" cy="185" r="5"/><circle cx="225" cy="185" r="5"/><circle cx="125" cy="205" r="5"/><circle cx="145" cy="205" r="5"/><circle cx="165" cy="205" r="5"/><circle cx="185" cy="205" r="5"/><circle cx="205" cy="205" r="5"/><circle cx="225" cy="205" r="5"/><circle cx="125" cy="225" r="5"/><circle cx="145" cy="225" r="5"/><circle cx="165" cy="225" r="5"/><circle cx="185" cy="225" r="5"/><circle cx="205" cy="225" r="5"/><circle cx="225" cy="225" r="5"/></symbol><symbol viewBox="0 0 70 470" id="dotsVertical" xmlns="http://www.w3.org/2000/svg"><circle r="5" transform="matrix(-1 0 0 1 65 125)"/><circle r="5" transform="matrix(-1 0 0 1 45 125)"/><circle r="5" transform="matrix(-1 0 0 1 25 125)"/><circle r="5" transform="matrix(-1 0 0 1 5 125)"/><circle r="5" transform="matrix(-1 0 0 1 65 145)"/><circle r="5" transform="matrix(-1 0 0 1 45 145)"/><circle r="5" transform="matrix(-1 0 0 1 25 145)"/><circle r="5" transform="matrix(-1 0 0 1 5 145)"/><circle r="5" transform="matrix(-1 0 0 1 65 165)"/><circle r="5" transform="matrix(-1 0 0 1 45 165)"/><circle r="5" transform="matrix(-1 0 0 1 25 165)"/><circle r="5" transform="matrix(-1 0 0 1 5 165)"/><circle r="5" transform="matrix(-1 0 0 1 65 185)"/><circle r="5" transform="matrix(-1 0 0 1 45 185)"/><circle r="5" transform="matrix(-1 0 0 1 25 185)"/><circle r="5" transform="matrix(-1 0 0 1 5 185)"/><circle r="5" transform="matrix(-1 0 0 1 65 205)"/><circle r="5" transform="matrix(-1 0 0 1 45 205)"/><circle r="5" transform="matrix(-1 0 0 1 25 205)"/><circle r="5" transform="matrix(-1 0 0 1 5 205)"/><circle r="5" transform="matrix(-1 0 0 1 65 225)"/><circle r="5" transform="matrix(-1 0 0 1 45 225)"/><circle r="5" transform="matrix(-1 0 0 1 25 225)"/><circle r="5" transform="matrix(-1 0 0 1 5 225)"/><circle r="5" transform="matrix(-1 0 0 1 65 5)"/><circle r="5" transform="matrix(-1 0 0 1 45 5)"/><circle r="5" transform="matrix(-1 0 0 1 25 5)"/><circle r="5" transform="matrix(-1 0 0 1 5 5)"/><circle r="5" transform="matrix(-1 0 0 1 65 25)"/><circle r="5" transform="matrix(-1 0 0 1 45 25)"/><circle r="5" transform="matrix(-1 0 0 1 25 25)"/><circle r="5" transform="matrix(-1 0 0 1 5 25)"/><circle r="5" transform="matrix(-1 0 0 1 65 45)"/><circle r="5" transform="matrix(-1 0 0 1 45 45)"/><circle r="5" transform="matrix(-1 0 0 1 25 45)"/><circle r="5" transform="matrix(-1 0 0 1 5 45)"/><circle r="5" transform="matrix(-1 0 0 1 65 65)"/><circle r="5" transform="matrix(-1 0 0 1 45 65)"/><circle r="5" transform="matrix(-1 0 0 1 25 65)"/><circle r="5" transform="matrix(-1 0 0 1 5 65)"/><circle r="5" transform="matrix(-1 0 0 1 65 85)"/><circle r="5" transform="matrix(-1 0 0 1 45 85)"/><circle r="5" transform="matrix(-1 0 0 1 25 85)"/><circle r="5" transform="matrix(-1 0 0 1 5 85)"/><circle r="5" transform="matrix(-1 0 0 1 65 105)"/><circle r="5" transform="matrix(-1 0 0 1 45 105)"/><circle r="5" transform="matrix(-1 0 0 1 25 105)"/><circle r="5" transform="matrix(-1 0 0 1 5 105)"/><circle r="5" transform="matrix(-1 0 0 1 65 245)"/><circle r="5" transform="matrix(-1 0 0 1 45 245)"/><circle r="5" transform="matrix(-1 0 0 1 25 245)"/><circle r="5" transform="matrix(-1 0 0 1 5 245)"/><circle r="5" transform="matrix(-1 0 0 1 65 265)"/><circle r="5" transform="matrix(-1 0 0 1 45 265)"/><circle r="5" transform="matrix(-1 0 0 1 25 265)"/><circle r="5" transform="matrix(-1 0 0 1 5 265)"/><circle r="5" transform="matrix(-1 0 0 1 65 285)"/><circle r="5" transform="matrix(-1 0 0 1 45 285)"/><circle r="5" transform="matrix(-1 0 0 1 25 285)"/><circle r="5" transform="matrix(-1 0 0 1 5 285)"/><circle r="5" transform="matrix(-1 0 0 1 65 305)"/><circle r="5" transform="matrix(-1 0 0 1 45 305)"/><circle r="5" transform="matrix(-1 0 0 1 25 305)"/><circle r="5" transform="matrix(-1 0 0 1 5 305)"/><circle r="5" transform="matrix(-1 0 0 1 65 325)"/><circle r="5" transform="matrix(-1 0 0 1 45 325)"/><circle r="5" transform="matrix(-1 0 0 1 25 325)"/><circle r="5" transform="matrix(-1 0 0 1 5 325)"/><circle r="5" transform="matrix(-1 0 0 1 65 345)"/><circle r="5" transform="matrix(-1 0 0 1 45 345)"/><circle r="5" transform="matrix(-1 0 0 1 25 345)"/><circle r="5" transform="matrix(-1 0 0 1 5 345)"/><circle r="5" transform="matrix(-1 0 0 1 65 365)"/><circle r="5" transform="matrix(-1 0 0 1 45 365)"/><circle r="5" transform="matrix(-1 0 0 1 25 365)"/><circle r="5" transform="matrix(-1 0 0 1 5 365)"/><circle r="5" transform="matrix(-1 0 0 1 65 385)"/><circle r="5" transform="matrix(-1 0 0 1 45 385)"/><circle r="5" transform="matrix(-1 0 0 1 25 385)"/><circle r="5" transform="matrix(-1 0 0 1 5 385)"/><circle r="5" transform="matrix(-1 0 0 1 65 405)"/><circle r="5" transform="matrix(-1 0 0 1 45 405)"/><circle r="5" transform="matrix(-1 0 0 1 25 405)"/><circle r="5" transform="matrix(-1 0 0 1 5 405)"/><circle r="5" transform="matrix(-1 0 0 1 65 425)"/><circle r="5" transform="matrix(-1 0 0 1 45 425)"/><circle r="5" transform="matrix(-1 0 0 1 25 425)"/><circle r="5" transform="matrix(-1 0 0 1 5 425)"/><circle r="5" transform="matrix(-1 0 0 1 65 445)"/><circle r="5" transform="matrix(-1 0 0 1 45 445)"/><circle r="5" transform="matrix(-1 0 0 1 25 445)"/><circle r="5" transform="matrix(-1 0 0 1 5 445)"/><circle r="5" transform="matrix(-1 0 0 1 65 465)"/><circle r="5" transform="matrix(-1 0 0 1 45 465)"/><circle r="5" transform="matrix(-1 0 0 1 25 465)"/><circle r="5" transform="matrix(-1 0 0 1 5 465)"/></symbol><symbol viewBox="0 0 24 24" id="facebook" xmlns="http://www.w3.org/2000/svg"><path d="M18 2h-3a5 5 0 00-5 5v3H7v4h3v8h4v-8h3l1-4h-4V7a1 1 0 011-1h3V2z"/></symbol><symbol viewBox="0 0 24 24" id="instagram" xmlns="http://www.w3.org/2000/svg"><g clip-path="url(#gclip0_1_25)"><path d="M17 2H7a5 5 0 00-5 5v10a5 5 0 005 5h10a5 5 0 005-5V7a5 5 0 00-5-5z"/><path d="M16 11.37a4 4 0 11-7.914 1.174A4 4 0 0116 11.37z"/></g><defs><clipPath id="gclip0_1_25"><path d="M0 0h24v24H0z"/></clipPath></defs></symbol><symbol viewBox="0 0 50 50" id="search" xmlns="http://www.w3.org/2000/svg"><path d="M21 3C11.621 3 4 10.621 4 20s7.621 17 17 17c3.71 0 7.14-1.195 9.938-3.219l13.156 13.125 2.812-2.812-13-13.032A16.923 16.923 0 0038 20c0-9.379-7.621-17-17-17zm0 2c8.297 0 15 6.703 15 15s-6.703 15-15 15S6 28.297 6 20 12.703 5 21 5z"/></symbol><symbol viewBox="0 0 24 24" id="twitter" xmlns="http://www.w3.org/2000/svg"><path d="M23 3a10.9 10.9 0 01-3.14 1.53 4.48 4.48 0 00-7.86 3v1A10.66 10.66 0 013 4s-4 9 5 13a11.64 11.64 0 01-7 2c9 5 20 0 20-11.5 0-.279-.028-.556-.08-.83A7.72 7.72 0 0023 3z"/></symbol></svg>