<svg xmlns="http://www.w3.org/2000/svg" width="970.586" height="970.586"><path d="M44.177 220.307l363.9 296.4c22.101 18 48.9 27 75.8 27 26.901 0 53.701-9 75.801-27l366.699-298.7c51.4-41.9 59.101-117.4 17.2-168.8-41.8-51.4-117.399-59.1-168.8-17.3l-290.901 237-288.1-234.7c-51.4-41.8-127-34.1-168.8 17.3-41.899 51.4-34.099 126.9 17.201 168.8z"/><path d="M44.177 642.207l363.9 296.399c22.101 18 48.9 27 75.8 27 26.901 0 53.701-9 75.801-27l366.699-298.7c51.4-41.899 59.101-117.399 17.2-168.8-41.899-51.399-117.399-59.1-168.8-17.2l-290.901 236.9-288.1-234.6c-51.4-41.9-127-34.101-168.8 17.199-41.899 51.402-34.099 127.001 17.201 168.802z"/></svg>