<svg xmlns="http://www.w3.org/2000/svg" width="970.627" height="970.627"><path d="M49.777 943.627c22.3 18.101 49.1 27 75.7 27 34.8 0 69.4-15.1 93.1-44.199l298.7-366.7c36-44.101 36-107.401 0-151.601l-296.4-363.899c-41.9-51.4-117.4-59.1-168.8-17.3-51.4 41.9-59.1 117.5-17.3 168.9l234.7 288.101-237 290.9c-41.8 51.298-34.1 126.899 17.3 168.798z"/><path d="M641.777 44.227c-41.801-51.4-117.4-59.1-168.801-17.3-51.399 41.9-59.1 117.4-17.199 168.8l234.6 288.1-237 290.901c-41.9 51.399-34.1 127 17.2 168.8 22.3 18.1 49.1 27 75.7 27 34.8 0 69.399-15.1 93.1-44.2l298.7-366.7c36-44.1 36-107.4 0-151.6l-296.3-363.801z"/></svg>