<svg xmlns="http://www.w3.org/2000/svg" viewBox="0 0 512 512"><path d="M511.917 226.456a15.079 15.079 0 00-5.89-10.444l-40.557-30.721 14.756-48.689a15.08 15.08 0 00-11.001-19.058l-49.548-11.569-6.325-50.483a15.071 15.071 0 00-6.098-10.323 15.062 15.062 0 00-11.702-2.611l-49.968 9.584-26.315-43.545a15.079 15.079 0 00-21.523-4.575l-41.747 29.079L214.25 4.023a15.082 15.082 0 00-21.523 4.576l-26.311 43.546-49.968-9.584a15.08 15.08 0 00-17.8 12.934l-6.325 50.483-49.548 11.569a15.08 15.08 0 00-11.002 19.055l14.754 48.691-40.554 30.719a15.073 15.073 0 00-5.89 10.443 15.073 15.073 0 003.591 11.44l33.281 38.481L12.4 320.935a15.08 15.08 0 006.8 20.926l46.056 21.616-4.309 50.696a15.079 15.079 0 0014.723 16.353l50.87 1.014 16.682 48.064a15.074 15.074 0 0020.101 8.951l46.886-19.763 34.79 37.124a15.077 15.077 0 0022.003 0l34.791-37.124 46.882 19.763a15.095 15.095 0 0011.99-.12 15.07 15.07 0 008.111-8.83l16.684-48.065 50.868-1.014a15.077 15.077 0 0014.723-16.353l-4.309-50.696 46.059-21.616a15.075 15.075 0 006.799-20.927l-24.557-44.559 33.284-38.481a15.078 15.078 0 003.59-11.438zM255.999 400.278c-79.556 0-144.278-64.723-144.278-144.278s64.723-144.278 144.278-144.278S400.277 176.446 400.277 256s-64.723 144.278-144.278 144.278z"/><path d="M255.999 141.877c-62.927 0-114.122 51.195-114.122 114.122s51.196 114.122 114.122 114.122c62.929 0 114.122-51.195 114.122-114.122s-51.194-114.122-114.122-114.122zm59.112 92.485l-64.599 64.599a15.034 15.034 0 01-10.662 4.417 15.028 15.028 0 01-10.66-4.417l-32.302-32.3c-5.887-5.887-5.887-15.434 0-21.323 5.887-5.887 15.435-5.889 21.323 0l21.639 21.638 53.938-53.937c5.888-5.887 15.435-5.889 21.324 0 5.887 5.888 5.887 15.435-.001 21.323z"/></svg>