<svg xmlns="http://www.w3.org/2000/svg" viewBox="0 0 116.214 116.214"><path d="M114.452 54.13c0-3.975-3.253-7.228-7.228-7.228H8.99c-3.975 0-7.227 3.253-7.227 7.228 0 3.379 2.358 6.214 5.504 6.995l9.966 47.148c0 4.368 3.573 7.941 7.941 7.941H92.34c4.368 0 7.941-3.573 7.941-7.941l10.075-47.663c2.411-1.174 4.096-3.63 4.096-6.48zM34.228 99.059a2.489 2.489 0 01-2.482 2.481h-.684a2.49 2.49 0 01-2.482-2.481V70.014a2.489 2.489 0 012.482-2.481h.684a2.489 2.489 0 012.482 2.481v29.045zm18.169 0a2.489 2.489 0 01-2.482 2.481h-.684a2.49 2.49 0 01-2.482-2.481V70.014a2.488 2.488 0 012.482-2.481h.684a2.489 2.489 0 012.482 2.481v29.045zm18.168 0a2.488 2.488 0 01-2.482 2.481H67.4a2.488 2.488 0 01-2.481-2.481V70.014a2.488 2.488 0 012.481-2.481h.684a2.489 2.489 0 012.482 2.481v29.045zm18.169 0a2.488 2.488 0 01-2.481 2.481h-.684a2.49 2.49 0 01-2.482-2.481V70.014a2.489 2.489 0 012.482-2.481h.684a2.488 2.488 0 012.481 2.481v29.045zM26.283 34.868C28.533 19.2 41.973 7.145 58.264 7.145c16.291 0 29.732 12.055 31.982 27.723.328 5.35 7.22 4.494 7.22 0C95.171 15.24 78.509 0 58.264 0 38.02 0 21.357 15.24 19.063 34.868c0 5.565 7.308 5.779 7.22 0z"/></svg>