<svg xmlns="http://www.w3.org/2000/svg" xmlns:xlink="http://www.w3.org/1999/xlink"><symbol viewBox="0 0 45.279 45.279" id="arrow-slider" xmlns="http://www.w3.org/2000/svg"><path d="M44.106 42.943H3.987L44.933 1.995A1.167 1.167 0 1043.282.344L2.336 41.292V1.168a1.169 1.169 0 00-2.336 0v44.111h44.111a1.168 1.168 0 10-.005-2.336z"/></symbol><symbol viewBox="0 0 32 32" id="arrow-up" xmlns="http://www.w3.org/2000/svg"><path d="M.256 23.481a1.063 1.063 0 001.813.75l14.119-14.119 13.913 13.912c.413.413 1.087.413 1.5 0s.413-1.087 0-1.5L16.938 7.855a1.065 1.065 0 00-1.5 0L.569 22.724a1.051 1.051 0 00-.313.756z"/></symbol><symbol viewBox="0 0 337.792 337.792" id="back-arrow" xmlns="http://www.w3.org/2000/svg"><path d="M337.792 134.824l-130.824 99.441v-52.216C117.061 173.419 30.735 207.817.001 302.41-.337 180.728 99.895 111.781 206.968 88.488V35.382l130.824 99.442z"/></symbol><symbol viewBox="0 0 18 18" id="close" xmlns="http://www.w3.org/2000/svg"><defs><path id="da" d="M691.485 160.07l-1.414 1.415-7.071-7.071-7.071 7.071-1.414-1.414 7.07-7.071-7.07-7.071 1.414-1.415 7.07 7.071 7.072-7.07 1.414 1.414-7.07 7.07z"/></defs><use xlink:href="#da" transform="translate(-674 -144)"/></symbol><symbol viewBox="0 0 10 20" id="facebook" xmlns="http://www.w3.org/2000/svg"><path d="M6.25 6.875v-2.5c0-.69.56-1.25 1.25-1.25h1.25V0h-2.5A3.75 3.75 0 002.5 3.75v3.125H0V10h2.5v10h3.75V10h2.5L10 6.875H6.25z"/></symbol><symbol viewBox="0 0 40 41" id="instagram" xmlns="http://www.w3.org/2000/svg"><path d="M12.166 1.293h.5v-.01h15.905c5.965 0 10.847 4.985 10.847 11.112V29.17c0 6.128-4.883 11.112-10.838 11.112H12.166C6.2 40.281 1.31 35.305 1.31 29.188V12.405C1.31 6.278 6.2 1.293 12.166 1.293zm-8.848 11.12v16.785c0 4.986 3.928 9.017 8.848 9.017H28.58c4.904 0 8.83-4.032 8.83-9.036V12.405c0-5.004-3.927-9.036-8.839-9.036H12.166c-4.913 0-8.838 4.032-8.848 9.045zm28.084-3.93c0-.59.454-1.038 1.005-1.038.55 0 1.004.448 1.004 1.038 0 .59-.454 1.038-1.004 1.038s-1.004-.448-1.004-1.038zM10.345 20.787c0-5.656 4.525-10.266 10.03-10.266 5.504 0 10.029 4.61 10.029 10.266s-4.525 10.266-10.03 10.266c-5.504 0-10.029-4.61-10.029-10.266zm18.05 0c0-4.534-3.56-8.19-8.02-8.19-4.461 0-8.021 3.656-8.021 8.19 0 4.534 3.56 8.19 8.02 8.19 4.461 0 8.021-3.656 8.021-8.19z"/></symbol><symbol viewBox="0 0 476.213 476.213" id="longArrow" xmlns="http://www.w3.org/2000/svg"><path d="M308.713 70.607L238.107 0 167.5 70.607l21.213 21.213 34.394-34.393v418.786h30V57.427L287.5 91.82z"/></symbol><symbol viewBox="0 0 328.863 328.863" id="plus18" xmlns="http://www.w3.org/2000/svg"><path d="M104.032 220.434V131.15h-20.64v-22.88h49.121v112.164h-28.481zM239.552 137.23c0 9.76-5.28 18.4-14.08 23.201 12.319 5.119 20 15.84 20 28.32 0 20.16-17.921 32.961-45.921 32.961-28.001 0-45.921-12.641-45.921-32.48 0-12.801 8.32-23.682 21.28-28.801-9.44-5.281-15.52-14.24-15.52-24 0-17.922 15.681-29.281 40.001-29.281 24.64 0 40.161 11.68 40.161 30.08zm-59.042 49.122c0 9.441 6.721 14.721 19.041 14.721s19.2-5.119 19.2-14.721c0-9.279-6.88-14.561-19.2-14.561-12.321 0-19.041 5.281-19.041 14.561zm2.881-47.522c0 8.002 5.76 12.48 16.16 12.48s16.16-4.479 16.16-12.48c0-8.318-5.76-12.959-16.16-12.959-10.401 0-16.16 4.641-16.16 12.959z"/><path d="M292.864 120.932c4.735 13.975 7.137 28.592 7.137 43.5 0 74.752-60.816 135.568-135.569 135.568s-135.57-60.816-135.57-135.568c0-74.754 60.816-135.568 135.569-135.568 14.91 0 29.527 2.4 43.5 7.137V5.832C193.817 1.963 179.24 0 164.432 0 73.765 0 .001 73.764.001 164.432s73.764 164.432 164.431 164.432 164.43-73.764 164.43-164.432c0-14.807-1.962-29.385-5.831-43.5h-30.167z"/><path d="M284.659 44.111V12.582h-22.672v31.529h-31.34v22.67h31.34v31.528h22.672V66.781h31.527v-22.67z"/></symbol><symbol viewBox="0 0 50 50" id="search" xmlns="http://www.w3.org/2000/svg"><path d="M21 3C11.621 3 4 10.621 4 20s7.621 17 17 17c3.71 0 7.14-1.195 9.938-3.219l13.156 13.125 2.812-2.812-13-13.032A16.923 16.923 0 0038 20c0-9.379-7.621-17-17-17zm0 2c8.297 0 15 6.703 15 15s-6.703 15-15 15S6 28.297 6 20 12.703 5 21 5z"/></symbol><symbol viewBox="0 0 300 300" id="telegram" xmlns="http://www.w3.org/2000/svg"><path d="M5.299 144.645l69.126 25.8 26.756 86.047c1.712 5.511 8.451 7.548 12.924 3.891l38.532-31.412a11.496 11.496 0 0114.013-.391l69.498 50.457c4.785 3.478 11.564.856 12.764-4.926L299.823 29.22c1.31-6.316-4.896-11.585-10.91-9.259L5.218 129.402c-7.001 2.7-6.94 12.612.081 15.243zm91.57 12.066l135.098-83.207c2.428-1.491 4.926 1.792 2.841 3.726L123.313 180.87a23.112 23.112 0 00-7.163 13.829l-3.798 28.146c-.503 3.758-5.782 4.131-6.819.494l-14.607-51.325c-1.673-5.854.765-12.107 5.943-15.303z"/></symbol><symbol viewBox="0 0 21 17" id="tweet" xmlns="http://www.w3.org/2000/svg"><path d="M20.923 2.013a8.943 8.943 0 01-2.471.677A4.265 4.265 0 0020.337.32a8.57 8.57 0 01-2.72 1.037 4.288 4.288 0 00-7.42 2.933c0 .34.03.667.1.979C6.732 5.095 3.577 3.386 1.457.782A4.319 4.319 0 00.87 2.95c0 1.486.765 2.803 1.905 3.565a4.236 4.236 0 01-1.938-.528v.047a4.31 4.31 0 003.437 4.214c-.35.096-.73.142-1.125.142-.275 0-.552-.016-.812-.074.556 1.7 2.133 2.948 4.008 2.989a8.619 8.619 0 01-5.318 1.829c-.352 0-.69-.016-1.027-.059A12.076 12.076 0 006.58 17c7.893 0 12.209-6.539 12.209-12.206 0-.19-.007-.373-.016-.554a8.559 8.559 0 002.15-2.227z"/></symbol><symbol viewBox="0 0 24 24" id="vk" xmlns="http://www.w3.org/2000/svg"><path d="M21.579 6.855c.14-.465 0-.806-.662-.806h-2.193c-.558 0-.813.295-.953.619 0 0-1.115 2.719-2.695 4.482-.51.513-.743.675-1.021.675-.139 0-.341-.162-.341-.627V6.855c0-.558-.161-.806-.626-.806H9.642c-.348 0-.558.258-.558.504 0 .528.79.65.871 2.138v3.228c0 .707-.127.836-.407.836-.743 0-2.551-2.729-3.624-5.853-.209-.607-.42-.852-.98-.852H2.752c-.627 0-.752.295-.752.619 0 .582.743 3.462 3.461 7.271 1.812 2.601 4.363 4.011 6.687 4.011 1.393 0 1.565-.313 1.565-.853v-1.966c0-.626.133-.752.574-.752.324 0 .882.164 2.183 1.417 1.486 1.486 1.732 2.153 2.567 2.153h2.192c.626 0 .939-.313.759-.931-.197-.615-.907-1.51-1.849-2.569-.512-.604-1.277-1.254-1.51-1.579-.325-.419-.231-.604 0-.976.001.001 2.672-3.761 2.95-5.04z"/></symbol></svg>