<svg width="70" height="110" viewBox="0 0 70 110" fill="none" xmlns="http://www.w3.org/2000/svg">
<circle r="5" transform="matrix(-1 0 0 1 65 5)" fill="#41EAD4"/>
<circle r="5" transform="matrix(-1 0 0 1 45 5)" fill="#41EAD4"/>
<circle r="5" transform="matrix(-1 0 0 1 25 5)" fill="#41EAD4"/>
<circle r="5" transform="matrix(-1 0 0 1 5 5)" fill="#41EAD4"/>
<circle r="5" transform="matrix(-1 0 0 1 65 25)" fill="#41EAD4"/>
<circle r="5" transform="matrix(-1 0 0 1 45 25)" fill="#41EAD4"/>
<circle r="5" transform="matrix(-1 0 0 1 25 25)" fill="#41EAD4"/>
<circle r="5" transform="matrix(-1 0 0 1 5 25)" fill="#41EAD4"/>
<circle r="5" transform="matrix(-1 0 0 1 65 45)" fill="#41EAD4"/>
<circle r="5" transform="matrix(-1 0 0 1 45 45)" fill="#41EAD4"/>
<circle r="5" transform="matrix(-1 0 0 1 25 45)" fill="#41EAD4"/>
<circle r="5" transform="matrix(-1 0 0 1 5 45)" fill="#41EAD4"/>
<circle r="5" transform="matrix(-1 0 0 1 65 65)" fill="#41EAD4"/>
<circle r="5" transform="matrix(-1 0 0 1 45 65)" fill="#41EAD4"/>
<circle r="5" transform="matrix(-1 0 0 1 25 65)" fill="#41EAD4"/>
<circle r="5" transform="matrix(-1 0 0 1 5 65)" fill="#41EAD4"/>
<circle r="5" transform="matrix(-1 0 0 1 65 85)" fill="#41EAD4"/>
<circle r="5" transform="matrix(-1 0 0 1 45 85)" fill="#41EAD4"/>
<circle r="5" transform="matrix(-1 0 0 1 25 85)" fill="#41EAD4"/>
<circle r="5" transform="matrix(-1 0 0 1 5 85)" fill="#41EAD4"/>
<circle r="5" transform="matrix(-1 0 0 1 65 105)" fill="#41EAD4"/>
<circle r="5" transform="matrix(-1 0 0 1 45 105)" fill="#41EAD4"/>
<circle r="5" transform="matrix(-1 0 0 1 25 105)" fill="#41EAD4"/>
<circle r="5" transform="matrix(-1 0 0 1 5 105)" fill="#41EAD4"/>
</svg>
