<svg width="42" height="42" fill="none" xmlns="http://www.w3.org/2000/svg"><path d="M35.283.86h-28.4C3.64.86 1 3.491 1 6.726V35.05c0 3.236 2.64 5.869 5.884 5.869h28.399c3.244 0 5.884-2.633 5.884-5.869V6.727c0-3.235-2.64-5.868-5.884-5.868zm3.53 34.19a3.53 3.53 0 01-3.53 3.521h-28.4a3.53 3.53 0 01-3.53-3.52V6.726a3.53 3.53 0 013.53-3.52h28.4a3.53 3.53 0 013.53 3.52V35.05z" fill="#000" stroke="#000" stroke-width=".5"/><path d="M32.128 29.895h-4.312v-7.201c0-.497-.036-.988-.161-1.473-.515-1.998-2.741-1.881-3.627-.934-.445.476-.735 1.014-.748 1.679-.003.158-.012.316-.012.474v7.454h-4.304V16.53h4.302v1.793l.034.015.092-.125c.432-.599.927-1.13 1.585-1.488.736-.402 1.53-.536 2.356-.512.895.026 1.745.227 2.51.709.98.617 1.579 1.52 1.929 2.604.273.844.362 1.716.363 2.598.002 2.538 0 5.077 0 7.616 0 .05-.004.1-.007.156zm-15.794.008h-4.28V16.525h4.28v13.378zm-1.957-20.03c1.348-.002 2.302.957 2.306 2.318.005 1.346-.964 2.3-2.338 2.3-1.34 0-2.297-.958-2.3-2.306-.002-1.348.968-2.31 2.332-2.312z" fill="#000"/></svg>