<svg fill="none" height="48" width="48" xmlns="http://www.w3.org/2000/svg"><path d="M0 23C0 12.158 0 6.737 3.368 3.368S12.158 0 23 0h2c10.842 0 16.264 0 19.632 3.368C48 6.737 48 12.158 48 23v2c0 10.842 0 16.264-3.368 19.632C41.263 48 35.842 48 25 48h-2c-10.842 0-16.263 0-19.632-3.368C0 41.263 0 35.842 0 25z" fill="#000"/><path clip-rule="evenodd" d="M13 15H9.5c-1 0-1.2.47-1.2.99 0 .927 1.187 5.525 5.526 11.606C16.719 31.749 20.795 34 24.504 34c2.225 0 2.5-.5 2.5-1.361V29.5c0-1 .211-1.2.916-1.2.519 0 1.409.26 3.486 2.262C33.78 32.935 34.171 34 35.506 34h3.5c1.001 0 1.501-.5 1.213-1.487-.316-.983-1.45-2.41-2.953-4.101-.816-.964-2.04-2.003-2.41-2.522-.52-.667-.372-.964 0-1.557 0 0 4.264-6.007 4.71-8.046.222-.742 0-1.287-1.06-1.287h-3.5c-.89 0-1.3.47-1.523.99 0 0-1.78 4.338-4.302 7.156-.816.816-1.187 1.076-1.632 1.076-.223 0-.545-.26-.545-1.001v-6.934c0-.89-.258-1.287-1-1.287h-5.501c-.557 0-.891.413-.891.805 0 .843 1.26 1.038 1.39 3.41v5.155c0 1.13-.203 1.335-.648 1.335-1.187 0-4.074-4.358-5.786-9.344C14.232 15.39 13.896 15 13 15z" fill="#fff" fill-rule="evenodd"/></svg>