<svg xmlns="http://www.w3.org/2000/svg" xmlns:xlink="http://www.w3.org/1999/xlink"><symbol viewBox="0 0 17 28" id="arrow" xmlns="http://www.w3.org/2000/svg"><path d="M0 3.267L10.568 14 0 24.733 3.216 28 17 14 3.216 0 0 3.267z"/></symbol><symbol viewBox="0 0 17 28" id="arrow-testy" xmlns="http://www.w3.org/2000/svg"><path d="M0 3.267L10.568 14 0 24.733 3.216 28 17 14 3.216 0 0 3.267z"/></symbol><symbol viewBox="0 0 32 32" id="arrow-up" xmlns="http://www.w3.org/2000/svg"><path d="M.256 23.481a1.063 1.063 0 001.813.75l14.119-14.119 13.913 13.912c.413.413 1.087.413 1.5 0s.413-1.087 0-1.5L16.938 7.855a1.065 1.065 0 00-1.5 0L.569 22.724a1.051 1.051 0 00-.313.756z"/></symbol><symbol viewBox="0 0 68 68" id="brakets" xmlns="http://www.w3.org/2000/svg"><path d="M37.719 52.195c-.734 0-1.328.595-1.328 1.328v4.25a6.648 6.648 0 006.64 6.641H61.36A6.648 6.648 0 0068 57.774V41.836a6.648 6.648 0 00-6.64-6.64h-8.593c.303-9.922 4.067-15.08 11.483-15.755a1.328 1.328 0 001.208-1.322V4.914a1.328 1.328 0 00-1.403-1.326c-9.151.515-16.138 3.664-20.765 9.362-4.578 5.637-6.9 13.874-6.9 24.483v4.757a1.328 1.328 0 002.657 0v-4.757c0-19.476 7.774-29.661 23.755-31.091v10.603c-4.04.628-7.163 2.508-9.298 5.6-2.264 3.279-3.413 7.982-3.413 13.98 0 .733.595 1.328 1.329 1.328h9.94a3.989 3.989 0 013.984 3.984v15.936a3.989 3.989 0 01-3.985 3.985H43.031a3.989 3.989 0 01-3.984-3.985v-4.25c0-.733-.595-1.328-1.328-1.328zM6.64 64.414H24.97a6.648 6.648 0 006.64-6.64V41.836a6.648 6.648 0 00-6.64-6.64h-8.592c.302-9.922 4.067-15.08 11.483-15.755a1.328 1.328 0 001.207-1.322V4.914a1.328 1.328 0 00-1.402-1.326C18.513 4.103 11.527 7.252 6.9 12.95 2.32 18.587 0 26.824 0 37.433v20.34a6.648 6.648 0 006.64 6.641zM2.657 37.433c0-19.476 7.774-29.661 23.755-31.091v10.603c-4.039.628-7.163 2.508-9.298 5.6-2.264 3.279-3.412 7.982-3.412 13.98 0 .733.595 1.328 1.328 1.328h9.94a3.989 3.989 0 013.984 3.984v15.936a3.989 3.989 0 01-3.984 3.985H9.03v-9.833a1.328 1.328 0 00-2.656 0v9.823a3.989 3.989 0 01-3.719-3.975v-20.34z"/><path d="M7.703 48.643c.734 0 1.328-.602 1.328-1.335a1.328 1.328 0 00-2.656 0v.013c0 .733.595 1.322 1.328 1.322zM37.719 49.185c.733 0 1.328-.595 1.328-1.328v-.028a1.328 1.328 0 00-2.656 0v.028c0 .733.594 1.328 1.328 1.328z"/></symbol><symbol viewBox="0 0 248 317" id="cubik" xmlns="http://www.w3.org/2000/svg"><g opacity=".4"><rect width="8" height="8" rx="1"/><rect y="228" width="8" height="8" rx="1"/><rect y="276" width="8" height="8" rx="1"/><rect y="211" width="8" height="8" rx="1"/><rect y="178" width="8" height="8" rx="1"/><rect y="129" width="8" height="8" rx="1"/><rect y="16" width="8" height="8" rx="1"/><rect y="244" width="8" height="8" rx="1"/><rect y="292" width="8" height="8" rx="1"/><rect y="194" width="8" height="8" rx="1"/><rect y="145" width="8" height="8" rx="1"/><rect y="32" width="8" height="8" rx="1"/><rect y="260" width="8" height="8" rx="1"/><rect y="308" width="8" height="8" rx="1"/><rect y="161" width="8" height="8" rx="1"/><rect y="48" width="8" height="8" rx="1"/><rect y="64" width="8" height="8" rx="1"/><rect y="80" width="8" height="8" rx="1"/><rect y="96" width="8" height="8" rx="1"/><rect y="112" width="8" height="8" rx="1"/><rect x="16" width="8" height="8" rx="1"/><rect x="16" y="228" width="8" height="8" rx="1"/><rect x="16" y="276" width="8" height="8" rx="1"/><rect x="16" y="211" width="8" height="8" rx="1"/><rect x="16" y="178" width="8" height="8" rx="1"/><rect x="16" y="129" width="8" height="8" rx="1"/><rect x="16" y="16" width="8" height="8" rx="1"/><rect x="16" y="244" width="8" height="8" rx="1"/><rect x="16" y="292" width="8" height="8" rx="1"/><rect x="16" y="194" width="8" height="8" rx="1"/><rect x="16" y="145" width="8" height="8" rx="1"/><rect x="16" y="32" width="8" height="8" rx="1"/><rect x="16" y="260" width="8" height="8" rx="1"/><rect x="16" y="308" width="8" height="8" rx="1"/><rect x="16" y="161" width="8" height="8" rx="1"/><rect x="16" y="48" width="8" height="8" rx="1"/><rect x="16" y="64" width="8" height="8" rx="1"/><rect x="16" y="80" width="8" height="8" rx="1"/><rect x="16" y="96" width="8" height="8" rx="1"/><rect x="16" y="112" width="8" height="8" rx="1"/><rect x="32" width="8" height="8" rx="1"/><rect x="32" y="228" width="8" height="8" rx="1"/><rect x="32" y="276" width="8" height="8" rx="1"/><rect x="32" y="211" width="8" height="8" rx="1"/><rect x="32" y="178" width="8" height="8" rx="1"/><rect x="32" y="129" width="8" height="8" rx="1"/><rect x="32" y="16" width="8" height="8" rx="1"/><rect x="32" y="244" width="8" height="8" rx="1"/><rect x="32" y="292" width="8" height="8" rx="1"/><rect x="32" y="194" width="8" height="8" rx="1"/><rect x="32" y="145" width="8" height="8" rx="1"/><rect x="32" y="32" width="8" height="8" rx="1"/><rect x="32" y="260" width="8" height="8" rx="1"/><rect x="32" y="308" width="8" height="8" rx="1"/><rect x="32" y="161" width="8" height="8" rx="1"/><rect x="32" y="48" width="8" height="8" rx="1"/><rect x="32" y="64" width="8" height="8" rx="1"/><rect x="32" y="80" width="8" height="8" rx="1"/><rect x="32" y="96" width="8" height="8" rx="1"/><rect x="32" y="112" width="8" height="8" rx="1"/><rect x="48" width="8" height="8" rx="1"/><rect x="48" y="228" width="8" height="8" rx="1"/><rect x="48" y="276" width="8" height="8" rx="1"/><rect x="48" y="211" width="8" height="8" rx="1"/><rect x="48" y="178" width="8" height="8" rx="1"/><rect x="48" y="129" width="8" height="8" rx="1"/><rect x="48" y="16" width="8" height="8" rx="1"/><rect x="48" y="244" width="8" height="8" rx="1"/><rect x="48" y="292" width="8" height="8" rx="1"/><rect x="48" y="194" width="8" height="8" rx="1"/><rect x="48" y="145" width="8" height="8" rx="1"/><rect x="48" y="32" width="8" height="8" rx="1"/><rect x="48" y="260" width="8" height="8" rx="1"/><rect x="48" y="308" width="8" height="8" rx="1"/><rect x="48" y="161" width="8" height="8" rx="1"/><rect x="48" y="48" width="8" height="8" rx="1"/><rect x="48" y="64" width="8" height="8" rx="1"/><rect x="48" y="80" width="8" height="8" rx="1"/><rect x="48" y="96" width="8" height="8" rx="1"/><rect x="48" y="112" width="8" height="8" rx="1"/><rect x="64" width="8" height="8" rx="1"/><rect x="64" y="228" width="8" height="8" rx="1"/><rect x="64" y="276" width="8" height="8" rx="1"/><rect x="64" y="211" width="8" height="8" rx="1"/><rect x="64" y="178" width="8" height="8" rx="1"/><rect x="64" y="129" width="8" height="8" rx="1"/><rect x="64" y="16" width="8" height="8" rx="1"/><rect x="64" y="244" width="8" height="8" rx="1"/><rect x="64" y="292" width="8" height="8" rx="1"/><rect x="64" y="194" width="8" height="8" rx="1"/><rect x="64" y="145" width="8" height="8" rx="1"/><rect x="64" y="32" width="8" height="8" rx="1"/><rect x="64" y="260" width="8" height="8" rx="1"/><rect x="64" y="308" width="8" height="8" rx="1"/><rect x="64" y="161" width="8" height="8" rx="1"/><rect x="64" y="48" width="8" height="8" rx="1"/><rect x="64" y="64" width="8" height="8" rx="1"/><rect x="64" y="80" width="8" height="8" rx="1"/><rect x="64" y="96" width="8" height="8" rx="1"/><rect x="64" y="112" width="8" height="8" rx="1"/><rect x="80" width="8" height="8" rx="1"/><rect x="80" y="228" width="8" height="8" rx="1"/><rect x="80" y="276" width="8" height="8" rx="1"/><rect x="80" y="211" width="8" height="8" rx="1"/><rect x="80" y="178" width="8" height="8" rx="1"/><rect x="80" y="129" width="8" height="8" rx="1"/><rect x="96" width="8" height="8" rx="1"/><rect x="96" y="228" width="8" height="8" rx="1"/><rect x="96" y="276" width="8" height="8" rx="1"/><rect x="96" y="211" width="8" height="8" rx="1"/><rect x="96" y="178" width="8" height="8" rx="1"/><rect x="96" y="129" width="8" height="8" rx="1"/><rect x="112" width="8" height="8" rx="1"/><rect x="112" y="228" width="8" height="8" rx="1"/><rect x="112" y="276" width="8" height="8" rx="1"/><rect x="112" y="211" width="8" height="8" rx="1"/><rect x="112" y="178" width="8" height="8" rx="1"/><rect x="112" y="129" width="8" height="8" rx="1"/><rect x="80" y="16" width="8" height="8" rx="1"/><rect x="80" y="244" width="8" height="8" rx="1"/><rect x="80" y="292" width="8" height="8" rx="1"/><rect x="80" y="194" width="8" height="8" rx="1"/><rect x="80" y="145" width="8" height="8" rx="1"/><rect x="96" y="16" width="8" height="8" rx="1"/><rect x="96" y="244" width="8" height="8" rx="1"/><rect x="96" y="292" width="8" height="8" rx="1"/><rect x="96" y="194" width="8" height="8" rx="1"/><rect x="96" y="145" width="8" height="8" rx="1"/><rect x="112" y="16" width="8" height="8" rx="1"/><rect x="112" y="244" width="8" height="8" rx="1"/><rect x="112" y="292" width="8" height="8" rx="1"/><rect x="112" y="194" width="8" height="8" rx="1"/><rect x="112" y="145" width="8" height="8" rx="1"/><rect x="80" y="32" width="8" height="8" rx="1"/><rect x="80" y="260" width="8" height="8" rx="1"/><rect x="80" y="308" width="8" height="8" rx="1"/><rect x="80" y="161" width="8" height="8" rx="1"/><rect x="96" y="32" width="8" height="8" rx="1"/><rect x="96" y="260" width="8" height="8" rx="1"/><rect x="96" y="308" width="8" height="8" rx="1"/><rect x="96" y="161" width="8" height="8" rx="1"/><rect x="112" y="32" width="8" height="8" rx="1"/><rect x="112" y="260" width="8" height="8" rx="1"/><rect x="112" y="308" width="8" height="8" rx="1"/><rect x="112" y="161" width="8" height="8" rx="1"/><rect x="80" y="48" width="8" height="8" rx="1"/><rect x="96" y="48" width="8" height="8" rx="1"/><rect x="112" y="48" width="8" height="8" rx="1"/><rect x="80" y="64" width="8" height="8" rx="1"/><rect x="96" y="64" width="8" height="8" rx="1"/><rect x="112" y="64" width="8" height="8" rx="1"/><rect x="80" y="80" width="8" height="8" rx="1"/><rect x="80" y="96" width="8" height="8" rx="1"/><rect x="80" y="112" width="8" height="8" rx="1"/><rect x="96" y="80" width="8" height="8" rx="1"/><rect x="112" y="80" width="8" height="8" rx="1"/><rect x="96" y="96" width="8" height="8" rx="1"/><rect x="96" y="112" width="8" height="8" rx="1"/><rect x="112" y="96" width="8" height="8" rx="1"/><rect x="112" y="112" width="8" height="8" rx="1"/><rect x="128" y="1" width="8" height="8" rx="1"/><rect x="128" y="229" width="8" height="8" rx="1"/><rect x="128" y="277" width="8" height="8" rx="1"/><rect x="128" y="261" width="8" height="8" rx="1"/><rect x="128" y="309" width="8" height="8" rx="1"/><rect x="128" y="212" width="8" height="8" rx="1"/><rect x="128" y="179" width="8" height="8" rx="1"/><rect x="128" y="130" width="8" height="8" rx="1"/><rect x="128" y="17" width="8" height="8" rx="1"/><rect x="128" y="245" width="8" height="8" rx="1"/><rect x="128" y="293" width="8" height="8" rx="1"/><rect x="128" y="195" width="8" height="8" rx="1"/><rect x="128" y="146" width="8" height="8" rx="1"/><rect x="128" y="33" width="8" height="8" rx="1"/><rect x="128" y="162" width="8" height="8" rx="1"/><rect x="128" y="49" width="8" height="8" rx="1"/><rect x="128" y="65" width="8" height="8" rx="1"/><rect x="128" y="81" width="8" height="8" rx="1"/><rect x="128" y="97" width="8" height="8" rx="1"/><rect x="128" y="113" width="8" height="8" rx="1"/><rect x="144" y="1" width="8" height="8" rx="1"/><rect x="144" y="229" width="8" height="8" rx="1"/><rect x="144" y="277" width="8" height="8" rx="1"/><rect x="144" y="261" width="8" height="8" rx="1"/><rect x="144" y="309" width="8" height="8" rx="1"/><rect x="144" y="212" width="8" height="8" rx="1"/><rect x="144" y="179" width="8" height="8" rx="1"/><rect x="144" y="130" width="8" height="8" rx="1"/><rect x="144" y="17" width="8" height="8" rx="1"/><rect x="144" y="245" width="8" height="8" rx="1"/><rect x="144" y="293" width="8" height="8" rx="1"/><rect x="144" y="195" width="8" height="8" rx="1"/><rect x="144" y="146" width="8" height="8" rx="1"/><rect x="144" y="33" width="8" height="8" rx="1"/><rect x="144" y="162" width="8" height="8" rx="1"/><rect x="144" y="49" width="8" height="8" rx="1"/><rect x="144" y="65" width="8" height="8" rx="1"/><rect x="144" y="81" width="8" height="8" rx="1"/><rect x="144" y="97" width="8" height="8" rx="1"/><rect x="144" y="113" width="8" height="8" rx="1"/><rect x="160" y="1" width="8" height="8" rx="1"/><rect x="160" y="229" width="8" height="8" rx="1"/><rect x="160" y="277" width="8" height="8" rx="1"/><rect x="160" y="261" width="8" height="8" rx="1"/><rect x="160" y="309" width="8" height="8" rx="1"/><rect x="160" y="212" width="8" height="8" rx="1"/><rect x="160" y="179" width="8" height="8" rx="1"/><rect x="160" y="130" width="8" height="8" rx="1"/><rect x="160" y="17" width="8" height="8" rx="1"/><rect x="160" y="245" width="8" height="8" rx="1"/><rect x="160" y="293" width="8" height="8" rx="1"/><rect x="160" y="195" width="8" height="8" rx="1"/><rect x="160" y="146" width="8" height="8" rx="1"/><rect x="160" y="33" width="8" height="8" rx="1"/><rect x="160" y="162" width="8" height="8" rx="1"/><rect x="160" y="49" width="8" height="8" rx="1"/><rect x="160" y="65" width="8" height="8" rx="1"/><rect x="160" y="81" width="8" height="8" rx="1"/><rect x="160" y="97" width="8" height="8" rx="1"/><rect x="160" y="113" width="8" height="8" rx="1"/><rect x="176" y="1" width="8" height="8" rx="1"/><rect x="176" y="229" width="8" height="8" rx="1"/><rect x="176" y="277" width="8" height="8" rx="1"/><rect x="176" y="261" width="8" height="8" rx="1"/><rect x="176" y="309" width="8" height="8" rx="1"/><rect x="176" y="212" width="8" height="8" rx="1"/><rect x="176" y="179" width="8" height="8" rx="1"/><rect x="176" y="130" width="8" height="8" rx="1"/><rect x="176" y="17" width="8" height="8" rx="1"/><rect x="176" y="245" width="8" height="8" rx="1"/><rect x="176" y="293" width="8" height="8" rx="1"/><rect x="176" y="195" width="8" height="8" rx="1"/><rect x="176" y="146" width="8" height="8" rx="1"/><rect x="176" y="33" width="8" height="8" rx="1"/><rect x="176" y="162" width="8" height="8" rx="1"/><rect x="176" y="49" width="8" height="8" rx="1"/><rect x="176" y="65" width="8" height="8" rx="1"/><rect x="176" y="81" width="8" height="8" rx="1"/><rect x="176" y="97" width="8" height="8" rx="1"/><rect x="176" y="113" width="8" height="8" rx="1"/><rect x="192" y="1" width="8" height="8" rx="1"/><rect x="192" y="229" width="8" height="8" rx="1"/><rect x="192" y="277" width="8" height="8" rx="1"/><rect x="192" y="261" width="8" height="8" rx="1"/><rect x="192" y="309" width="8" height="8" rx="1"/><rect x="192" y="212" width="8" height="8" rx="1"/><rect x="192" y="179" width="8" height="8" rx="1"/><rect x="192" y="130" width="8" height="8" rx="1"/><rect x="192" y="17" width="8" height="8" rx="1"/><rect x="192" y="245" width="8" height="8" rx="1"/><rect x="192" y="293" width="8" height="8" rx="1"/><rect x="192" y="195" width="8" height="8" rx="1"/><rect x="192" y="146" width="8" height="8" rx="1"/><rect x="192" y="33" width="8" height="8" rx="1"/><rect x="192" y="162" width="8" height="8" rx="1"/><rect x="192" y="49" width="8" height="8" rx="1"/><rect x="192" y="65" width="8" height="8" rx="1"/><rect x="192" y="81" width="8" height="8" rx="1"/><rect x="192" y="97" width="8" height="8" rx="1"/><rect x="192" y="113" width="8" height="8" rx="1"/><rect x="208" y="1" width="8" height="8" rx="1"/><rect x="208" y="229" width="8" height="8" rx="1"/><rect x="208" y="277" width="8" height="8" rx="1"/><rect x="208" y="261" width="8" height="8" rx="1"/><rect x="208" y="309" width="8" height="8" rx="1"/><rect x="208" y="212" width="8" height="8" rx="1"/><rect x="208" y="179" width="8" height="8" rx="1"/><rect x="208" y="130" width="8" height="8" rx="1"/><rect x="224" y="1" width="8" height="8" rx="1"/><rect x="224" y="229" width="8" height="8" rx="1"/><rect x="224" y="277" width="8" height="8" rx="1"/><rect x="224" y="261" width="8" height="8" rx="1"/><rect x="224" y="309" width="8" height="8" rx="1"/><rect x="224" y="212" width="8" height="8" rx="1"/><rect x="224" y="179" width="8" height="8" rx="1"/><rect x="224" y="130" width="8" height="8" rx="1"/><rect x="240" y="1" width="8" height="8" rx="1"/><rect x="240" y="229" width="8" height="8" rx="1"/><rect x="240" y="277" width="8" height="8" rx="1"/><rect x="240" y="261" width="8" height="8" rx="1"/><rect x="240" y="309" width="8" height="8" rx="1"/><rect x="240" y="212" width="8" height="8" rx="1"/><rect x="240" y="179" width="8" height="8" rx="1"/><rect x="240" y="130" width="8" height="8" rx="1"/><rect x="208" y="17" width="8" height="8" rx="1"/><rect x="208" y="245" width="8" height="8" rx="1"/><rect x="208" y="293" width="8" height="8" rx="1"/><rect x="208" y="195" width="8" height="8" rx="1"/><rect x="208" y="146" width="8" height="8" rx="1"/><rect x="224" y="17" width="8" height="8" rx="1"/><rect x="224" y="245" width="8" height="8" rx="1"/><rect x="224" y="293" width="8" height="8" rx="1"/><rect x="224" y="195" width="8" height="8" rx="1"/><rect x="224" y="146" width="8" height="8" rx="1"/><rect x="240" y="17" width="8" height="8" rx="1"/><rect x="240" y="245" width="8" height="8" rx="1"/><rect x="240" y="293" width="8" height="8" rx="1"/><rect x="240" y="195" width="8" height="8" rx="1"/><rect x="240" y="146" width="8" height="8" rx="1"/><rect x="208" y="33" width="8" height="8" rx="1"/><rect x="208" y="162" width="8" height="8" rx="1"/><rect x="224" y="33" width="8" height="8" rx="1"/><rect x="224" y="162" width="8" height="8" rx="1"/><rect x="240" y="33" width="8" height="8" rx="1"/><rect x="240" y="162" width="8" height="8" rx="1"/><rect x="208" y="49" width="8" height="8" rx="1"/><rect x="224" y="49" width="8" height="8" rx="1"/><rect x="240" y="49" width="8" height="8" rx="1"/><rect x="208" y="65" width="8" height="8" rx="1"/><rect x="224" y="65" width="8" height="8" rx="1"/><rect x="240" y="65" width="8" height="8" rx="1"/><rect x="208" y="81" width="8" height="8" rx="1"/><rect x="208" y="97" width="8" height="8" rx="1"/><rect x="208" y="113" width="8" height="8" rx="1"/><rect x="224" y="81" width="8" height="8" rx="1"/><rect x="240" y="81" width="8" height="8" rx="1"/><rect x="224" y="97" width="8" height="8" rx="1"/><rect x="224" y="113" width="8" height="8" rx="1"/><rect x="240" y="97" width="8" height="8" rx="1"/><rect x="240" y="113" width="8" height="8" rx="1"/></g></symbol><symbol viewBox="0 0 10 20" id="facebookAlone" xmlns="http://www.w3.org/2000/svg"><path d="M6.25 6.875v-2.5c0-.69.56-1.25 1.25-1.25h1.25V0h-2.5A3.75 3.75 0 002.5 3.75v3.125H0V10h2.5v10h3.75V10h2.5L10 6.875H6.25z"/></symbol><symbol viewBox="0 0 131 32" id="logo" xmlns="http://www.w3.org/2000/svg"><path d="M8.476 23.315c-2.142 0-3.759-.56-4.851-1.68-1.092-1.134-1.638-2.653-1.638-4.557V8.321h3.192v8.799c0 1.064.294 1.876.882 2.436.588.56 1.393.84 2.415.84 1.008 0 1.799-.28 2.373-.84.588-.56.882-1.372.882-2.436V8.321h3.192v8.757c0 1.904-.539 3.423-1.617 4.557-1.078 1.12-2.688 1.68-4.83 1.68zm8.546-14.994h3.192v6.384l5.544-6.384h3.8l-6.215 7.161L29.979 23h-3.801l-5.964-6.741V23h-3.192V8.321zM32.523 23c-.336 0-.623-.112-.86-.336a1.14 1.14 0 01-.337-.84c0-.336.12-.623.357-.861a1.15 1.15 0 01.84-.357c.336 0 .623.119.861.357s.357.525.357.861c0 .336-.119.616-.357.84a1.211 1.211 0 01-.86.336zM42.841 8.321h10.185v2.688h-6.993v3.423h5.145v2.457h-5.145V23h-3.192V8.321zm14.77 0h3.13L66.6 23h-3.255l-1.26-3.192h-5.817L55.008 23h-3.276l5.88-14.679zm3.634 8.946l-2.08-5.586-2.078 5.586h4.158zm10.595 6.048c-.896 0-1.785-.084-2.667-.252-.882-.168-1.603-.392-2.163-.672v-2.814a10.56 10.56 0 002.31.819c.798.182 1.56.273 2.289.273.812 0 1.428-.14 1.848-.42.42-.28.63-.672.63-1.176 0-.364-.105-.672-.315-.924-.21-.252-.518-.476-.924-.672-.392-.21-1.001-.483-1.827-.819-1.372-.56-2.366-1.183-2.982-1.869-.616-.7-.924-1.561-.924-2.583 0-.826.224-1.554.672-2.184.448-.644 1.078-1.141 1.89-1.491.812-.35 1.75-.525 2.814-.525.868 0 1.638.07 2.31.21.672.14 1.33.357 1.974.651v2.73c-1.232-.616-2.464-.924-3.696-.924-.784 0-1.4.14-1.848.42-.448.266-.672.651-.672 1.155 0 .364.105.665.315.903.21.238.504.448.882.63s.994.448 1.848.798c.994.42 1.77.826 2.33 1.218.56.378.974.833 1.24 1.365.266.518.399 1.162.399 1.932 0 1.33-.483 2.366-1.45 3.108-.951.742-2.38 1.113-4.283 1.113zm7.525-14.994h3.192v5.88h6.405v-5.88h3.192V23h-3.192v-6.153h-6.405V23h-3.192V8.321zm14.971 0h3.192V23h-3.192V8.321zm12.828 14.994c-1.47 0-2.807-.322-4.011-.966a7.218 7.218 0 01-2.814-2.688c-.686-1.162-1.03-2.492-1.03-3.99 0-1.498.344-2.828 1.03-3.99a7.172 7.172 0 012.814-2.709c1.204-.644 2.541-.966 4.011-.966 1.47 0 2.793.322 3.969.966a7.172 7.172 0 012.814 2.709c.686 1.162 1.029 2.492 1.029 3.99 0 1.498-.343 2.828-1.029 3.99a7.218 7.218 0 01-2.814 2.688c-1.176.644-2.499.966-3.969.966zm0-2.94c.84 0 1.603-.189 2.289-.567a4.335 4.335 0 001.659-1.638c.406-.714.609-1.547.609-2.499 0-.938-.203-1.757-.609-2.457a4.013 4.013 0 00-1.638-1.638c-.686-.392-1.456-.588-2.31-.588-.868 0-1.652.196-2.352.588a4.188 4.188 0 00-1.638 1.638c-.406.7-.609 1.519-.609 2.457 0 .952.203 1.785.609 2.499.406.7.959 1.246 1.659 1.638.7.378 1.477.567 2.331.567zm9.567-12.054h3.108l6.132 9.492V8.321h3.192V23h-3.087l-6.153-9.492V23h-3.192V8.321zM1 31h34M42 31h18"/></symbol><symbol viewBox="0 0 9 10" id="playIcon" xmlns="http://www.w3.org/2000/svg"><path d="M8.25 4.567a.5.5 0 010 .866l-7.5 4.33A.5.5 0 010 9.33V.67A.5.5 0 01.75.237l7.5 4.33z"/></symbol><symbol viewBox="0 0 21 17" id="tweetAlone" xmlns="http://www.w3.org/2000/svg"><path d="M20.923 2.013a8.943 8.943 0 01-2.471.677A4.265 4.265 0 0020.337.32a8.57 8.57 0 01-2.72 1.037 4.288 4.288 0 00-7.42 2.933c0 .34.03.667.1.979C6.732 5.095 3.577 3.386 1.457.782A4.319 4.319 0 00.87 2.95c0 1.486.765 2.803 1.905 3.565a4.236 4.236 0 01-1.938-.528v.047a4.31 4.31 0 003.437 4.214c-.35.096-.73.142-1.125.142-.275 0-.552-.016-.812-.074.556 1.7 2.133 2.948 4.008 2.989a8.619 8.619 0 01-5.318 1.829c-.352 0-.69-.016-1.027-.059A12.076 12.076 0 006.58 17c7.893 0 12.209-6.539 12.209-12.206 0-.19-.007-.373-.016-.554a8.559 8.559 0 002.15-2.227z"/></symbol><symbol viewBox="0 0 57 6" id="underline" xmlns="http://www.w3.org/2000/svg"><path d="M5 3.25h47"/><circle cx="54" cy="3" r="3"/><circle cx="3" cy="3" r="3"/></symbol><symbol viewBox="0 0 20 17" id="wAlone" xmlns="http://www.w3.org/2000/svg"><path d="M15 0v11.25h-2.5V0h-5v11.25H6.25C5.561 11.25 5 10.69 5 10V0H0v10a6.257 6.257 0 006.25 6.25H20V0h-5z"/></symbol><symbol viewBox="0 0 10 10" id="whatsAppAlone" xmlns="http://www.w3.org/2000/svg"><path d="M5.001 0H5A5.004 5.004 0 000 5c0 1.094.352 2.107.952 2.93L.329 9.789l1.922-.614C3.04 9.698 3.984 10 5 10A5.005 5.005 0 0010 5c0-2.757-2.242-5-4.999-5zm2.91 7.06c-.121.341-.6.624-.982.706-.26.056-.602.1-1.75-.376-1.47-.609-2.417-2.102-2.49-2.199-.07-.097-.594-.79-.594-1.508 0-.717.364-1.067.511-1.217.12-.123.32-.18.512-.18.061 0 .117.004.167.006.147.007.22.016.317.247.121.291.415 1.008.45 1.082.036.074.071.174.021.27-.047.1-.088.145-.162.23-.074.085-.143.15-.217.241-.068.08-.144.165-.059.312.085.143.379.623.811 1.008.558.497 1.01.655 1.173.723.12.05.264.038.352-.056.112-.12.25-.32.39-.517.1-.141.227-.159.36-.109.135.047.849.4.996.473.147.074.244.109.28.17.034.063.034.353-.086.695z"/></symbol></svg>