<svg version="1.1" id="Layer_1" xmlns="http://www.w3.org/2000/svg" x="0" y="0" viewBox="0 0 50 50" xml:space="preserve"><style>.st0{display:none}.st1{display:inline}.st3{stroke-linecap:round;stroke-linejoin:round}.st3,.st5,.st6,.st7{fill:none;stroke:#000;stroke-width:2;stroke-miterlimit:10}.st6,.st7{display:inline}.st7{stroke-linecap:round;stroke-linejoin:round}</style><g id="Welcome" class="st0"><g id="Group-43" class="st1"><path id="Rectangle-695" fill="#fff" fill-opacity="0" d="M0 0h50v50H0z"/><path id="Shape" d="M49 22h-7V1c0-.6-.4-1-1-1H1C.4 0 0 .4 0 1v32c0 .6.4 1 1 1h7v7c0 .4.2.7.5.9.2.1.3.1.5.1s.4-.1.6-.2L21.3 34h.7v7c0 .6.4 1 1 1h5.7l11.7 7.8c.2.1.4.2.6.2.2 0 .3 0 .5-.1.3-.2.5-.5.5-.9v-7h7c.6 0 1-.4 1-1V23c0-.6-.4-1-1-1zM21 32c-.2 0-.4.1-.6.2l-10.4 7V33c0-.6-.4-1-1-1H2V2h38v30H21zm27 8h-7c-.6 0-1 .4-1 1v6.1l-10.4-7c-.2 0-.4-.1-.6-.1h-5v-6h17c.6 0 1-.4 1-1v-9h6v16z"/></g></g><g class="st0"><g class="st1"><ellipse class="st3" cx="16.4" cy="10" rx="14.9" ry="6"/><path class="st3" d="M24.2 24.3c-2.3.6-4.9.9-7.7.9-8.2 0-14.9-2.7-14.9-6M31.3 10v6.3M1.5 10v8.9"/></g><g class="st1"><path class="st3" d="M26.2 33.2c-2.6 1-5.9 1.6-9.7 1.6-8.2 0-14.9-2.7-14.9-6m-.1-9.3v8.9"/></g><g class="st1"><path class="st3" d="M30.1 40.6c-2.3 2.2-7.6 3.7-13.7 3.7-8.2 0-14.9-2.7-14.9-6m0-9.1V38"/></g><g class="st1"><path class="st3" d="M34.6 14.9l-8.1 3.6-.3.1c-3 1.4-2.8 8.6.6 16.1s8.5 12.5 11.6 11.2l.3-.1 8.1-3.6"/><ellipse transform="rotate(-24.063 40.701 28.465)" class="st3" cx="40.7" cy="28.5" rx="6" ry="14.9"/></g></g><g class="st0"><g class="st1"><path class="st5" d="M44.9 20.3v28.8H5V20.3M1.5 9.2h46.9v11.1H1.5z"/></g><path class="st6" d="M24.9 9.2v39.9M15.3 9.2C13 7 12.2 4.1 13.5 2.5c1.4-1.9 5-1.5 8 .8 2.1 1.6 3.4 3.8 3.4 5.6m9.7.3c2.3-2.2 3.1-5.1 1.9-6.7-1.4-1.9-5-1.5-8 .8C26.3 5 25 7.4 25.1 9.2"/></g><g class="st0"><circle class="st7" cx="25.3" cy="39.9" r="3.6"/><path class="st7" d="M14.2 31c2.5-3.4 6.6-5.6 11.1-5.6 4.4 0 8.3 2 10.8 5.2M7.4 24.5c4.3-5.2 10.7-8.5 17.9-8.5 7 0 13.3 3.1 17.6 8"/><path class="st7" d="M1.5 18.5C7.3 11.9 15.8 7.7 25.3 7.7c9.3 0 17.7 4.1 23.5 10.5"/></g><g class="st0"><g class="st1"><path class="st5" d="M2.6 10.7h45.3v28.9H2.6z"/></g><g class="st1"><path class="st5" d="M2.6 10.7l22.6 20.7 22.7-20.7M32 25.1l15.9 14.5m-45.3 0l15.6-14.4"/></g></g><path class="st5" d="M23.8 5.2l-5.9 12-13.2 1.9c-1.2.2-1.6 1.6-.8 2.4l9.5 9.3L11.2 44c-.2 1.1 1 2 2 1.5l12.1-6.1 11.5 6.1c1 .5 2.2-.3 2-1.5l-2.3-13.1 9.5-9.3c.8-.8.4-2.2-.8-2.4L32 17.3l-5.9-12c-.3-1.1-1.8-1.1-2.3-.1z"/><g class="st0"><path class="st7" d="M8.7 9.6h31.4v24.5H8.7zm15.7 24.6v11.3m-6.2-11.3l-8.1 14.1m20.4-14.1l8.2 14.1M8.7 9.6V6h31.4v3.6M24.4 6V1.4"/></g><g class="st0"><g class="st1"><circle class="st5" cx="24.9" cy="25" r="18.9"/><path class="st5" d="M24.6 10.7v17.9m0 0l6.1-6.1"/></g><circle class="st6" cx="24.9" cy="25" r="23.6"/></g><g class="st0"><path class="st6" d="M31.6 34.3c0-2.5 1.2-4.8 3-6.4 2.7-2.5 4.4-6 4.4-10 0-8.4-7.6-15-16.3-13.3-5.5 1.1-9.8 5.7-10.7 11.2-.7 4.8 1.1 9.2 4.3 12.1 1.8 1.6 2.8 3.9 2.9 6.4m.2 0h12.2v7.5H19.4z"/><path class="st6" d="M30.2 41.7c0 2.1-1.4 3.7-3.1 3.7h-3.3c-1.7 0-3.1-1.7-3.1-3.7m3-7.4V19.6c0-1-.8-1.9-1.9-1.9-1 0-1.9.8-1.9 1.9 0 1 .8 1.9 1.9 1.9h7.4c1 0 1.9-.8 1.9-1.9 0-1-.8-1.9-1.9-1.9-1 0-1.9.8-1.9 1.9v14.7"/></g><g class="st0"><path class="st6" d="M35.9 42.8c0-5.3-3.7-9.8-8.7-10.8v-2.7c1.9-.9 3.2-2.8 3.2-5v-2.8c0-3.1-2.5-5.5-5.5-5.5-3.1 0-5.5 2.5-5.5 5.5v2.8c0 2.2 1.3 4 3.1 4.9V32c-4.9 1.1-8.6 5.5-8.6 10.8h22z"/><path class="st6" d="M30.3 19.8c.8-.5 1.7-.9 2.6-1.1v-2.1c-1.4-.7-2.3-2.1-2.3-3.7v-2.1c0-2.3 1.9-4.2 4.2-4.2S39 8.4 39 10.7v2.1c0 1.7-1 3.1-2.4 3.8v2.1c3.8.8 6.6 4.2 6.6 8.2H29.6m-10.2-7.2c-.8-.5-1.7-.9-2.6-1.1v-2.1c1.4-.7 2.4-2.1 2.4-3.8v-2.1c0-2.3-1.9-4.2-4.2-4.2-2.3 0-4.2 1.9-4.2 4.2v2.1c0 1.6 1 3 2.3 3.7v2.1c-3.7.8-6.5 4.2-6.5 8.2h12.8"/></g></svg>