<svg xmlns="http://www.w3.org/2000/svg" viewBox="0 0 100.353 100.353"><path d="M92.016 18.026H55.518a5.187 5.187 0 00-5.181 5.181v4.354H9.46a6.662 6.662 0 00-6.654 6.655v30.723a6.66 6.66 0 006.654 6.652h6.391v12.884a1.5 1.5 0 002.508 1.11l15.403-13.994h26.804a6.66 6.66 0 006.653-6.652v-14.61h7.273l10.877 9.881a1.5 1.5 0 002.509-1.11v-8.771h4.137a5.186 5.186 0 005.178-5.182v-21.94a5.183 5.183 0 00-5.177-5.181zM64.22 64.938a3.657 3.657 0 01-3.653 3.652H33.183c-.373 0-.732.139-1.009.39L18.85 81.085V70.09a1.5 1.5 0 00-1.5-1.5H9.459a3.657 3.657 0 01-3.654-3.652V34.215a3.659 3.659 0 013.654-3.655h42.363l.015.001.015-.001h8.715a3.658 3.658 0 013.653 3.655v30.723zm29.974-19.791a2.183 2.183 0 01-2.178 2.182h-5.637a1.5 1.5 0 00-1.5 1.5v6.882l-8.798-7.992a1.505 1.505 0 00-1.009-.39h-7.853V34.216c0-3.669-2.985-6.655-6.653-6.655h-7.229v-4.354c0-1.203.979-2.181 2.181-2.181h36.498c1.201 0 2.178.978 2.178 2.181v21.94z" fill="#231f20"/></svg>