<svg xmlns="http://www.w3.org/2000/svg" viewBox="0 0 100.355 100.352"><path d="M39.478 47.03c-1.222.804-2.607 1.715-4.14 2.921-.182.132-4.462 3.262-6.213 6.183-1.76 2.936-2.332 7.752-2.355 7.956a1.499 1.499 0 001.491 1.672H47.05a1.5 1.5 0 100-3H30.021c.286-1.488.816-3.646 1.679-5.085 1.191-1.988 4.305-4.5 5.449-5.333 1.479-1.162 2.808-2.037 3.98-2.808 3.068-2.019 5.492-3.614 5.492-7.701 0-5.375-4.374-9.749-9.749-9.749-5.378 0-9.753 4.374-9.753 9.749a1.5 1.5 0 103 0c0-3.721 3.029-6.749 6.753-6.749a6.757 6.757 0 016.749 6.749c-.001 2.358-.997 3.125-4.143 5.195zm25.979 18.908a1.5 1.5 0 001.5-1.5v-7.109h4.418a1.5 1.5 0 100-3h-4.418V33.763a1.5 1.5 0 00-2.76-.813L49.935 55.016a1.498 1.498 0 001.259 2.315h12.762v7.109a1.501 1.501 0 001.501 1.498zM53.951 54.329l10.006-15.482v15.482H53.951z"/><path d="M86.577 46.663l7.138 5.961 6.086-7.219-2.294-1.934-2.657 3.151c-1.737-24.105-21.891-43.19-46.433-43.19-25.678 0-46.568 20.889-46.568 46.566S22.74 96.564 48.417 96.564c16.45 0 31.358-8.414 39.881-22.508l-2.567-1.553c-7.974 13.188-21.923 21.061-37.313 21.061-24.023 0-43.568-19.544-43.568-43.566S24.395 6.432 48.418 6.432c23.078 0 42.013 18.039 43.468 40.755L88.5 44.36l-1.923 2.303z"/></svg>