<svg xmlns="http://www.w3.org/2000/svg" viewBox="0 0 100.25 100.25"><path d="M73.5 17.25h-60a1.5 1.5 0 00-1.5 1.5v76a1.5 1.5 0 001.5 1.5h60a1.5 1.5 0 001.5-1.5v-76a1.5 1.5 0 00-1.5-1.5zm-1.5 76H15v-73h57v73z"/><path d="M23.5 73.25h38a1.5 1.5 0 000-3H48V58.526c2.223-1.608 8.626-6.681 8.626-11.733 0-4.675-2.854-9.028-7.447-11.36A1.498 1.498 0 0047 36.77v7.48h-9v-7.155a1.5 1.5 0 00-2.25-1.299c-4.231 2.441-6.757 6.552-6.757 10.997 0 4.852 5.939 9.896 8.007 11.505V70.25H23.5a1.5 1.5 0 100 3zm15.883-16.911c-2.055-1.498-7.39-6.134-7.39-9.546 0-2.503 1.09-4.883 3.007-6.72v5.677a1.5 1.5 0 001.5 1.5h12a1.5 1.5 0 001.5-1.5v-6.219c2.281 1.886 3.626 4.51 3.626 7.262 0 3.549-5.75 8.213-7.965 9.711A1.5 1.5 0 0045 57.747V70.25h-5V57.552c0-.48-.229-.931-.617-1.213z"/><path d="M85.5 5.25h-60a1.5 1.5 0 00-1.5 1.5v7a1.5 1.5 0 103 0v-5.5h57v73h-5.5a1.5 1.5 0 000 3h7a1.5 1.5 0 001.5-1.5v-76a1.5 1.5 0 00-1.5-1.5z"/></svg>